PathFileType	4	(X/Y/Z)	/Users/itak/Documents/Research/Walk-IL/dataset/trc/00004_00004.trc
DataRate	CameraRate	NumFrames	NumMarkers	Units	OrigDataRate	OrigDataStartFrame	OrigNumFrames
100.000000	100.000000	4	53	mm	100.000000	0	566
Frame#	Time	RPSI			LPSI			L3			STRN			T10			C7			CLAV			RBAK			LBAK			LSHO			LUPA			LAEL			LAOL			LWTS			LWPS			LFRA			LIFD			LHPS			LHTS			RSHO			RUPA			RAEL			RAOL			RWTS			RWPS			RFRA			RIFD			RHTS			RHPS			RBHD			LFHD			RFHD			LBHD			LHIP			RHIP			RASI			LASI			LKNE			LTHI			LANK			LTIP			LTOE			LMT1			LMT5			LHEE			RKNE			RTHI			RANK			RTIP			RTOE			RMT1			RMT5			RHEE			
		X1	Y1	Z1	X2	Y2	Z2	X3	Y3	Z3	X4	Y4	Z4	X5	Y5	Z5	X6	Y6	Z6	X7	Y7	Z7	X8	Y8	Z8	X9	Y9	Z9	X10	Y10	Z10	X11	Y11	Z11	X12	Y12	Z12	X13	Y13	Z13	X14	Y14	Z14	X15	Y15	Z15	X16	Y16	Z16	X17	Y17	Z17	X18	Y18	Z18	X19	Y19	Z19	X20	Y20	Z20	X21	Y21	Z21	X22	Y22	Z22	X23	Y23	Z23	X24	Y24	Z24	X25	Y25	Z25	X26	Y26	Z26	X27	Y27	Z27	X28	Y28	Z28	X29	Y29	Z29	X30	Y30	Z30	X31	Y31	Z31	X32	Y32	Z32	X33	Y33	Z33	X34	Y34	Z34	X35	Y35	Z35	X36	Y36	Z36	X37	Y37	Z37	X38	Y38	Z38	X39	Y39	Z39	X40	Y40	Z40	X41	Y41	Z41	X42	Y42	Z42	X43	Y43	Z43	X44	Y44	Z44	X45	Y45	Z45	X46	Y46	Z46	X47	Y47	Z47	X48	Y48	Z48	X49	Y49	Z49	X50	Y50	Z50	X51	Y51	Z51	X52	Y52	Z52	X53	Y53	Z53	

1	0	-1233.203002929688	1070.633544921875	-177.2131805419922	-1236.105590820312	1066.040405273438	-340.080078125	-1240.511596679688	1132.610229492188	-267.4497985839844	-1021.667907714844	1331.595947265625	-264.8885498046875	-1271.28369140625	1267.537841796875	-268.7279357910156	-1240.307739257812	1536.951782226562	-284.1599731445312	-1071.494018554688	1455.685913085938	-272.6072082519531	-1282.114379882812	1399.165649414062	-202.2687377929688	-1250.576416015625	1492.681884765625	-381.4606323242188	-1145.93603515625	1505.398681640625	-452.2660217285156	-1166.907592773438	1377.568725585938	-529.10107421875	-1157.426513671875	1157.79736328125	-544.0703735351562	-1218.1982421875	1147.478759765625	-457.4832763671875	-1070.35595703125	908.0477294921875	-473.3747863769531	-1144.843383789062	891.4780883789062	-520.0338745117188	-1142.364868164062	1042.089599609375	-544.596435546875	-1041.061645507812	724.8865966796875	-449.3722839355469	-1110.421875	802.6522827148438	-513.8590087890625	-1044.419799804688	816.3578491210938	-484.1530456542969	-1164.444702148438	1533.719848632812	-107.326042175293	-1173.902221679688	1462.611083984375	-32.91739654541016	-1188.861938476562	1191.046875	-7.773926734924316	-1191.218994140625	1162.845458984375	-104.44970703125	-1048.315185546875	937.297607421875	-38.88235092163086	-1112.233276367188	921.1988525390625	27.04775810241699	-1170.985595703125	1116.703125	7.691944122314453	-1024.087768554688	752.39208984375	-51.91366577148438	-1011.787780761719	828.6942749023438	-23.2721061706543	-1068.068603515625	822.0579223632812	25.70021438598633	-1213.789916992188	1722.225952148438	-331.2418823242188	-1014.40576171875	1749.564697265625	-245.9361419677734	-1033.693115234375	1748.744262695312	-342.415283203125	-1178.708374023438	1719.359375	-190.5334320068359	-1141.800659179688	962.9818115234375	-446.4346313476562	-1117.10986328125	965.8179931640625	-76.34737396240234	-1015.159545898438	999.0880126953125	-152.7406311035156	-1024.9638671875	1011.930786132812	-387.80615234375	-1112.898193359375	516.9705200195312	-395.8368530273438	-1131.080078125	653.9147338867188	-431.7261047363281	-1215.371337890625	41.74813079833984	-389.7326354980469	-1199.080078125	289.0018310546875	-410.3987426757812	-994.4864501953125	41.57388305664062	-328.2683410644531	-1054.03955078125	50.04825210571289	-310.3490600585938	-1090.254150390625	39.94736862182617	-410.1861877441406	-1284.408325195312	49.01183319091797	-335.7340087890625	-1113.984130859375	526.2627563476562	-123.4151458740234	-1094.537231445312	797.4765014648438	-81.04288482666016	-1227.3583984375	47.3997917175293	-142.1075439453125	-1141.233032226562	405.7035522460938	-122.8819122314453	-996.171875	45.41947174072266	-183.5061798095703	-1058.896850585938	50.55007934570312	-214.3267822265625	-1077.242797851562	45.00738906860352	-118.5712814331055	-1262.544921875	61.20687866210938	-167.6587982177734	
2	0.01	-1233.156372070312	1070.633422851562	-177.2257385253906	-1236.118896484375	1066.031494140625	-340.1042785644531	-1240.49560546875	1132.603271484375	-267.4624938964844	-1021.663024902344	1331.579711914062	-264.9232788085938	-1271.273681640625	1267.531005859375	-268.7440185546875	-1240.252685546875	1536.943115234375	-284.15869140625	-1071.480834960938	1455.651000976562	-272.6306457519531	-1282.103149414062	1399.150390625	-202.2913513183594	-1250.561767578125	1492.676879882812	-381.4540710449219	-1145.936279296875	1505.40673828125	-452.275390625	-1166.913452148438	1377.577270507812	-529.1110229492188	-1157.442504882812	1157.802978515625	-544.1105346679688	-1218.196411132812	1147.480224609375	-457.50244140625	-1070.33154296875	908.0709228515625	-473.4037170410156	-1144.744140625	891.4747314453125	-520.0615234375	-1142.3623046875	1042.094116210938	-544.6360473632812	-1040.98876953125	724.9065551757812	-449.4107360839844	-1110.382202148438	802.654296875	-513.8900146484375	-1044.3720703125	816.3843383789062	-484.2250061035156	-1164.42138671875	1533.695434570312	-107.3173980712891	-1173.869873046875	1462.562744140625	-32.93589782714844	-1188.82373046875	1190.972900390625	-7.835461139678955	-1191.21484375	1162.811401367188	-104.5092315673828	-1048.299926757812	937.22900390625	-39.01261520385742	-1112.249145507812	921.1112670898438	26.92286491394043	-1170.96435546875	1116.644165039062	7.613469123840332	-1024.062866210938	752.3699951171875	-52.06838226318359	-1011.683532714844	828.5947265625	-23.45500564575195	-1068.115234375	822.037841796875	25.65082740783691	-1213.825439453125	1722.255249023438	-331.1604309082031	-1014.36376953125	1749.515625	-246.0625610351562	-1033.720458984375	1748.721801757812	-342.5739135742188	-1178.599853515625	1719.36181640625	-190.5624847412109	-1141.789794921875	962.9755859375	-446.4585876464844	-1117.05126953125	965.814453125	-76.37983703613281	-1015.158142089844	999.066162109375	-152.788818359375	-1024.977661132812	1011.911315917969	-387.8685607910156	-1112.89111328125	516.969970703125	-395.8573608398438	-1131.0830078125	653.9100952148438	-431.7568359375	-1215.371459960938	41.74543762207031	-389.7301940917969	-1199.0849609375	288.996826171875	-410.4140014648438	-994.4713745117188	41.56563186645508	-328.2728576660156	-1054.036254882812	50.05592346191406	-310.3465881347656	-1090.265502929688	39.94367980957031	-410.1889038085938	-1284.405151367188	49.0187873840332	-335.7309875488281	-1113.965698242188	526.2625122070312	-123.43603515625	-1094.455688476562	797.436279296875	-81.11859893798828	-1227.386474609375	47.43569946289062	-142.1180725097656	-1141.213012695312	405.6983337402344	-122.8940200805664	-996.1709594726562	45.41946792602539	-183.5059204101562	-1058.891235351562	50.54596710205078	-214.3254241943359	-1077.242431640625	45.02128982543945	-118.5776596069336	-1268.42578125	57.31225204467773	-172.5364685058594	
3	0.02	-1233.103759765625	1070.633544921875	-177.2442321777344	-1236.132080078125	1066.021362304688	-340.1329956054688	-1240.477661132812	1132.59521484375	-267.4808959960938	-1021.655639648438	1331.559814453125	-264.9692993164062	-1271.26220703125	1267.523559570312	-268.7654724121094	-1240.183715820312	1536.932495117188	-284.1622314453125	-1071.464111328125	1455.609497070312	-272.6616821289062	-1282.088256835938	1399.132202148438	-202.3223114013672	-1250.54541015625	1492.670166015625	-381.4513854980469	-1145.9375	1505.417724609375	-452.2900695800781	-1166.919067382812	1377.588134765625	-529.1277465820312	-1157.46533203125	1157.80908203125	-544.1651611328125	-1218.197509765625	1147.482055664062	-457.5309753417969	-1070.30419921875	908.10009765625	-473.4423522949219	-1144.628051757812	891.4713134765625	-520.1047973632812	-1142.360717773438	1042.099487304688	-544.689453125	-1040.904296875	724.9287109375	-449.4571533203125	-1110.32861328125	802.6546630859375	-513.9345092773438	-1044.323364257812	816.4114990234375	-484.3080749511719	-1164.393432617188	1533.664916992188	-107.3111038208008	-1173.832153320312	1462.502685546875	-32.96250534057617	-1188.780151367188	1190.88232421875	-7.915682315826416	-1191.214111328125	1162.767822265625	-104.5895767211914	-1048.27294921875	937.1476440429688	-39.17292785644531	-1112.263671875	921.004638671875	26.76019287109375	-1170.944580078125	1116.569091796875	7.510694026947021	-1024.06396484375	752.3104858398438	-52.27190399169922	-1011.560791015625	828.48388671875	-23.6791820526123	-1068.168823242188	822.0130615234375	25.58567810058594	-1213.857177734375	1722.290161132812	-331.0745544433594	-1014.295654296875	1749.454711914062	-246.223388671875	-1033.743896484375	1748.688842773438	-342.7657165527344	-1178.46875	1719.366577148438	-190.6022033691406	-1141.77783203125	962.96728515625	-446.4899291992188	-1116.985595703125	965.8101806640625	-76.42060089111328	-1015.158264160156	999.0383911132812	-152.8511047363281	-1024.997192382812	1011.88916015625	-387.9478454589844	-1112.882568359375	516.9690551757812	-395.8846435546875	-1131.095581054688	653.9064331054688	-431.7976379394531	-1215.372314453125	41.74314498901367	-389.7284851074219	-1199.084716796875	288.9900817871094	-410.4314270019531	-994.4594116210938	41.5589485168457	-328.2759094238281	-1054.031860351562	50.06060791015625	-310.34375	-1090.279418945312	39.94118881225586	-410.1923217773438	-1284.401977539062	49.02606582641602	-335.7278747558594	-1113.944091796875	526.263427734375	-123.4627380371094	-1094.368286132812	797.3934326171875	-81.20636749267578	-1227.408203125	47.46635818481445	-142.1266479492188	-1141.190551757812	405.693359375	-122.9109573364258	-996.1689453125	45.41871643066406	-183.5054321289062	-1058.88232421875	50.5393180847168	-214.322998046875	-1077.242431640625	45.0352783203125	-118.584602355957	-1273.8857421875	53.69760513305664	-177.0649719238281	
4	0.03	-1233.049438476562	1070.6337890625	-177.2691192626953	-1236.141845703125	1066.0107421875	-340.1641235351562	-1240.459594726562	1132.586181640625	-267.505859375	-1021.64599609375	1331.536987304688	-265.0255737304688	-1271.25	1267.516235351562	-268.7926940917969	-1240.104248046875	1536.92041015625	-284.1731872558594	-1071.444458007812	1455.564086914062	-272.6997680664062	-1282.070190429688	1399.112548828125	-202.3614044189453	-1250.528930664062	1492.66162109375	-381.4551086425781	-1145.940307617188	1505.431274414062	-452.3108825683594	-1166.923583984375	1377.600463867188	-529.1527099609375	-1157.49560546875	1157.814819335938	-544.2337036132812	-1218.203491210938	1147.484375	-457.5703430175781	-1070.275146484375	908.1343383789062	-473.4910583496094	-1144.503784179688	891.4682006835938	-520.165771484375	-1142.36083984375	1042.10546875	-544.75634765625	-1040.8134765625	724.9510498046875	-449.5097961425781	-1110.263793945312	802.6525268554688	-513.9944458007812	-1044.282592773438	816.4345092773438	-484.3955383300781	-1164.362426757812	1533.629638671875	-107.3097534179688	-1173.792358398438	1462.43408203125	-32.99785995483398	-1188.735595703125	1190.780517578125	-8.012855529785156	-1191.217895507812	1162.716918945312	-104.6895065307617	-1048.234252929688	937.0597534179688	-39.35542297363281	-1112.273803710938	920.885986328125	26.56449699401855	-1170.928466796875	1116.481323242188	7.38590145111084	-1024.104370117188	752.2088012695312	-52.51682662963867	-1011.429504394531	828.37255859375	-23.93259620666504	-1068.223999023438	821.9840087890625	25.50360679626465	-1213.877685546875	1722.328247070312	-330.9956359863281	-1014.196960449219	1749.385131835938	-246.4126892089844	-1033.756103515625	1748.644409179688	-342.979248046875	-1178.322631835938	1719.37451171875	-190.6524047851562	-1141.767211914062	962.9574584960938	-446.5281982421875	-1116.918090820312	965.8055419921875	-76.46778106689453	-1015.160705566406	999.006103515625	-152.9256896972656	-1025.022094726562	1011.8662109375	-388.0403442382812	-1112.872924804688	516.967529296875	-395.9182739257812	-1131.12109375	653.9053344726562	-431.84814453125	-1215.374145507812	41.740966796875	-389.7279663085938	-1199.078491210938	288.981689453125	-410.4501037597656	-994.4515380859375	41.55420684814453	-328.2765197753906	-1054.027587890625	50.06032180786133	-310.3407287597656	-1090.294677734375	39.94042587280273	-410.1963806152344	-1284.399169921875	49.03268051147461	-335.7251281738281	-1113.92138671875	526.2669677734375	-123.4946441650391	-1094.283447265625	797.3521728515625	-81.29909515380859	-1227.420532226562	47.48771667480469	-142.1322937011719	-1141.166870117188	405.6891174316406	-122.9328231811523	-996.1663208007812	45.41742324829102	-183.5048217773438	-1058.8701171875	50.53032302856445	-214.3194732666016	-1077.242797851562	45.04767227172852	-118.591423034668	-1278.293823242188	50.78207397460938	-180.7207336425781	
